<svg width="150" height="172" viewBox="0 0 150 172" fill="none" xmlns="http://www.w3.org/2000/svg">
<path d="M76.6988 0.27418L72.1435 1.44857L16.0206 15.9173L11.4652 17.0917C9.25413 17.6644 7.36054 19.0906 6.1999 21.0572C5.03927 23.0239 4.70638 25.3706 5.27426 27.5823L25.0273 104.158C25.6001 106.368 27.0267 108.261 28.9939 109.422C30.9612 110.582 33.3085 110.915 35.5209 110.347L35.5327 110.344L100.743 93.5325L100.755 93.5295C102.966 92.9568 104.859 91.5307 106.02 89.564C107.18 87.5973 107.513 85.2506 106.945 83.0389L87.1925 6.4634C86.6196 4.25292 85.1931 2.35987 83.2258 1.19957C81.2586 0.0392657 78.9112 -0.293536 76.6988 0.27418Z" fill="#F2F2F2"/>
<path d="M77.318 2.67473L71.9225 4.06572L17.4797 18.1013L12.0843 19.4923C10.5097 19.9001 9.16124 20.9157 8.33472 22.3162C7.5082 23.7168 7.27114 25.3879 7.67554 26.9629L27.4286 103.538C27.8365 105.113 28.8524 106.461 30.2533 107.287C31.6543 108.113 33.3258 108.35 34.9013 107.946L34.9131 107.943L100.123 91.1313L100.135 91.1283C101.71 90.7205 103.058 89.7049 103.885 88.3043C104.711 86.9038 104.948 85.2327 104.544 83.6577L84.7906 7.08223C84.3827 5.50811 83.3669 4.16003 81.966 3.33375C80.565 2.50748 78.8935 2.27047 77.318 2.67473Z" fill="white"/>
<path d="M73.2437 27.4718L40.2556 35.9763C39.8871 36.0713 39.496 36.0161 39.1683 35.8228C38.8406 35.6295 38.6031 35.314 38.5081 34.9457C38.4131 34.5773 38.4683 34.1863 38.6617 33.8587C38.855 33.5311 39.1706 33.2937 39.5391 33.1987L72.5272 24.6942C72.8955 24.5996 73.2864 24.655 73.6138 24.8483C73.9412 25.0417 74.1785 25.357 74.2735 25.7252C74.3684 26.0933 74.3133 26.484 74.1202 26.8116C73.9271 27.1391 73.6119 27.3765 73.2437 27.4718Z" fill="#F2F2F2"/>
<path d="M80.1835 30.6817L41.4648 40.6636C41.0964 40.7586 40.7053 40.7034 40.3775 40.5101C40.0498 40.3168 39.8123 40.0013 39.7173 39.6329C39.6223 39.2646 39.6776 38.8736 39.8709 38.546C40.0642 38.2184 40.3798 37.9809 40.7483 37.886L79.467 27.9041C79.8355 27.8091 80.2266 27.8643 80.5543 28.0576C80.882 28.2509 81.1195 28.5664 81.2145 28.9347C81.3095 29.3031 81.2543 29.6941 81.0609 30.0217C80.8676 30.3493 80.552 30.5867 80.1835 30.6817Z" fill="#F2F2F2"/>
<path d="M78.6624 48.4777L45.6743 56.9823C45.4918 57.0293 45.3019 57.0399 45.1154 57.0136C44.9288 56.9873 44.7493 56.9244 44.587 56.8287C44.4247 56.733 44.2829 56.6063 44.1696 56.4558C44.0564 56.3053 43.9738 56.134 43.9268 55.9516C43.8797 55.7692 43.8691 55.5793 43.8954 55.3928C43.9218 55.2064 43.9846 55.0269 44.0804 54.8646C44.1761 54.7024 44.3029 54.5606 44.4534 54.4474C44.6039 54.3341 44.7753 54.2517 44.9578 54.2046L77.9459 45.7001C78.1284 45.6531 78.3183 45.6424 78.5048 45.6688C78.6914 45.6951 78.8709 45.7579 79.0332 45.8536C79.1955 45.9493 79.3373 46.0761 79.4506 46.2266C79.5638 46.3771 79.6464 46.5484 79.6934 46.7308C79.7405 46.9132 79.7511 47.103 79.7248 47.2895C79.6984 47.476 79.6356 47.6555 79.5398 47.8177C79.4441 47.9799 79.3173 48.1217 79.1668 48.235C79.0163 48.3482 78.8449 48.4307 78.6624 48.4777Z" fill="#F2F2F2"/>
<path d="M85.602 51.6876L46.8833 61.6695C46.7008 61.7165 46.5109 61.7271 46.3243 61.7008C46.1378 61.6745 45.9583 61.6116 45.796 61.5159C45.6337 61.4202 45.4919 61.2935 45.3786 61.143C45.2653 60.9925 45.1828 60.8212 45.1358 60.6388C45.0887 60.4564 45.0781 60.2665 45.1044 60.0801C45.1308 59.8936 45.1936 59.7141 45.2894 59.5519C45.3851 59.3896 45.5118 59.2479 45.6624 59.1346C45.8129 59.0214 45.9843 58.9389 46.1667 58.8918L84.8855 48.9099C85.2539 48.815 85.645 48.8702 85.9727 49.0635C86.3004 49.2568 86.5379 49.5723 86.6329 49.9406C86.728 50.309 86.6727 50.6999 86.4794 51.0276C86.286 51.3552 85.9704 51.5926 85.602 51.6876Z" fill="#F2F2F2"/>
<path d="M84.0809 69.4836L51.0927 77.9881C50.7244 78.0828 50.3335 78.0274 50.006 77.8341C49.6785 77.6408 49.4412 77.3254 49.3462 76.9572C49.2513 76.589 49.3064 76.1982 49.4996 75.8707C49.6927 75.5431 50.008 75.3057 50.3762 75.2105L83.3644 66.706C83.7329 66.611 84.124 66.6662 84.4517 66.8595C84.7794 67.0528 85.0169 67.3683 85.1119 67.7366C85.2069 68.105 85.1517 68.496 84.9583 68.8236C84.765 69.1512 84.4494 69.3886 84.0809 69.4836Z" fill="#F2F2F2"/>
<path d="M91.0207 72.6934L52.302 82.6753C52.1195 82.7225 51.9295 82.7333 51.7428 82.7071C51.5561 82.6809 51.3764 82.6181 51.214 82.5224C51.0516 82.4267 50.9097 82.3 50.7963 82.1494C50.6829 81.9989 50.6003 81.8274 50.5533 81.645C50.5062 81.4625 50.4955 81.2725 50.522 81.0859C50.5484 80.8993 50.6113 80.7198 50.7072 80.5575C50.803 80.3952 50.9299 80.2534 51.0806 80.1402C51.2313 80.027 51.4029 79.9446 51.5855 79.8977L90.3042 69.9158C90.6726 69.8208 91.0637 69.876 91.3914 70.0693C91.7192 70.2626 91.9566 70.5781 92.0517 70.9465C92.1467 71.3148 92.0914 71.7058 91.8981 72.0334C91.7048 72.361 91.3891 72.5985 91.0207 72.6934Z" fill="#F2F2F2"/>
<path d="M34.6242 44.6965L22.95 47.7062C22.7733 47.7515 22.5859 47.7249 22.4288 47.6323C22.2717 47.5396 22.1578 47.3885 22.1121 47.212L19.4323 36.8233C19.3869 36.6467 19.4135 36.4593 19.5062 36.3023C19.5989 36.1452 19.7501 36.0314 19.9266 35.9856L31.6008 32.976C31.7775 32.9306 31.9649 32.9572 32.122 33.0499C32.2791 33.1425 32.393 33.2937 32.4387 33.4702L35.1185 43.8588C35.1639 44.0354 35.1373 44.2228 35.0446 44.3799C34.952 44.5369 34.8008 44.6508 34.6242 44.6965Z" fill="#E6E6E6"/>
<path d="M40.0427 65.7023L28.3684 68.712C28.1918 68.7574 28.0044 68.7308 27.8473 68.6381C27.6902 68.5455 27.5763 68.3943 27.5305 68.2178L24.8507 57.8292C24.8054 57.6526 24.832 57.4652 24.9246 57.3081C25.0173 57.1511 25.1685 57.0372 25.3451 56.9915L37.0193 53.9818C37.1959 53.9365 37.3834 53.9631 37.5405 54.0557C37.6975 54.1484 37.8115 54.2995 37.8572 54.476L40.537 64.8647C40.5823 65.0413 40.5558 65.2287 40.4631 65.3857C40.3704 65.5427 40.2192 65.6566 40.0427 65.7023Z" fill="#E6E6E6"/>
<path d="M45.4611 86.7082L33.7869 89.7179C33.6102 89.7632 33.4228 89.7366 33.2657 89.644C33.1086 89.5513 32.9947 89.4002 32.949 89.2237L30.2692 78.835C30.2238 78.6584 30.2504 78.471 30.3431 78.314C30.4358 78.157 30.587 78.0431 30.7635 77.9974L42.4377 74.9877C42.6144 74.9424 42.8018 74.9689 42.9589 75.0616C43.116 75.1542 43.2299 75.3054 43.2757 75.4819L45.9555 85.8705C46.0008 86.0472 45.9742 86.2345 45.8816 86.3916C45.7889 86.5486 45.6377 86.6625 45.4611 86.7082Z" fill="#E6E6E6"/>
<path d="M122.196 19.6848H54.8279C52.5438 19.6874 50.3539 20.5956 48.7388 22.2103C47.1237 23.8249 46.2152 26.0141 46.2126 28.2976V107.378C46.2152 109.662 47.1237 111.851 48.7388 113.466C50.3539 115.08 52.5438 115.988 54.8279 115.991H122.196C124.48 115.988 126.67 115.08 128.285 113.466C129.9 111.851 130.808 109.662 130.811 107.378V28.2976C130.808 26.0141 129.9 23.8249 128.285 22.2103C126.67 20.5956 124.48 19.6874 122.196 19.6848Z" fill="#E6E6E6"/>
<path d="M122.196 22.1642H54.828C53.2014 22.166 51.642 22.8128 50.4918 23.9626C49.3417 25.1124 48.6947 26.6714 48.6929 28.2975V107.378C48.6947 109.004 49.3417 110.563 50.4918 111.713C51.642 112.863 53.2014 113.51 54.828 113.512H122.196C123.822 113.51 125.382 112.863 126.532 111.713C127.682 110.563 128.329 109.004 128.331 107.378V28.2975C128.329 26.6714 127.682 25.1125 126.532 23.9626C125.382 22.8128 123.822 22.166 122.196 22.1642Z" fill="white"/>
<path d="M112.057 65.6189H77.9895C77.801 65.6191 77.6142 65.5821 77.44 65.5102C77.2657 65.4382 77.1074 65.3326 76.974 65.1994C76.8406 65.0662 76.7348 64.908 76.6626 64.7339C76.5904 64.5597 76.5532 64.3731 76.5532 64.1846C76.5532 63.9961 76.5904 63.8095 76.6626 63.6354C76.7348 63.4613 76.8406 63.3031 76.974 63.1699C77.1074 63.0367 77.2657 62.9311 77.44 62.8591C77.6142 62.7871 77.801 62.7502 77.9895 62.7504H112.057C112.437 62.7508 112.802 62.9021 113.07 63.171C113.339 63.4399 113.49 63.8045 113.49 64.1846C113.49 64.5647 113.339 64.9293 113.07 65.1982C112.802 65.4672 112.437 65.6185 112.057 65.6189Z" fill="#E6E6E6"/>
<path d="M117.975 70.4595H77.9895C77.801 70.4597 77.6142 70.4227 77.44 70.3507C77.2657 70.2787 77.1074 70.1731 76.974 70.0399C76.8406 69.9067 76.7348 69.7485 76.6626 69.5744C76.5904 69.4003 76.5532 69.2137 76.5532 69.0252C76.5532 68.8367 76.5904 68.6501 76.6626 68.476C76.7348 68.3018 76.8406 68.1437 76.974 68.0105C77.1074 67.8773 77.2657 67.7716 77.44 67.6997C77.6142 67.6277 77.801 67.5907 77.9895 67.5909H117.975C118.355 67.5909 118.72 67.742 118.989 68.011C119.258 68.28 119.41 68.6448 119.41 69.0252C119.41 69.4056 119.258 69.7704 118.989 70.0394C118.72 70.3083 118.355 70.4595 117.975 70.4595Z" fill="#E6E6E6"/>
<path d="M112.057 87.312H77.9895C77.801 87.3122 77.6142 87.2753 77.44 87.2033C77.2657 87.1313 77.1074 87.0257 76.974 86.8925C76.8406 86.7593 76.7348 86.6011 76.6626 86.427C76.5904 86.2529 76.5532 86.0662 76.5532 85.8777C76.5532 85.6892 76.5904 85.5026 76.6626 85.3285C76.7348 85.1544 76.8406 84.9962 76.974 84.863C77.1074 84.7298 77.2657 84.6242 77.44 84.5522C77.6142 84.4802 77.801 84.4433 77.9895 84.4435H112.057C112.437 84.4435 112.802 84.5946 113.071 84.8636C113.34 85.1325 113.492 85.4973 113.492 85.8777C113.492 86.2581 113.34 86.6229 113.071 86.8919C112.802 87.1609 112.437 87.312 112.057 87.312Z" fill="#E6E6E6"/>
<path d="M117.975 92.1526H77.9895C77.801 92.1528 77.6142 92.1158 77.44 92.0439C77.2657 91.9719 77.1074 91.8663 76.974 91.7331C76.8406 91.5999 76.7348 91.4417 76.6626 91.2676C76.5904 91.0934 76.5532 90.9068 76.5532 90.7183C76.5532 90.5298 76.5904 90.3432 76.6626 90.1691C76.7348 89.995 76.8406 89.8368 76.974 89.7036C77.1074 89.5704 77.2657 89.4648 77.44 89.3928C77.6142 89.3208 77.801 89.2838 77.9895 89.2841H117.975C118.163 89.2838 118.35 89.3208 118.524 89.3928C118.699 89.4648 118.857 89.5704 118.99 89.7036C119.124 89.8368 119.23 89.995 119.302 90.1691C119.374 90.3432 119.411 90.5298 119.411 90.7183C119.411 90.9068 119.374 91.0934 119.302 91.2676C119.23 91.4417 119.124 91.5999 118.99 91.7331C118.857 91.8663 118.699 91.9719 118.524 92.0439C118.35 92.1158 118.163 92.1528 117.975 92.1526Z" fill="#E6E6E6"/>
<path d="M70.3581 72.6569H58.3019C58.1196 72.6567 57.9447 72.5842 57.8157 72.4553C57.6868 72.3264 57.6142 72.1516 57.614 71.9692V61.2407C57.6142 61.0584 57.6868 60.8836 57.8157 60.7546C57.9447 60.6257 58.1196 60.5532 58.3019 60.553H70.3581C70.5405 60.5532 70.7153 60.6257 70.8443 60.7546C70.9733 60.8836 71.0458 61.0584 71.046 61.2407V71.9692C71.0458 72.1516 70.9733 72.3264 70.8443 72.4553C70.7153 72.5842 70.5405 72.6567 70.3581 72.6569Z" fill="#E6E6E6"/>
<path d="M70.3581 94.3499H58.3019C58.1196 94.3497 57.9447 94.2772 57.8157 94.1483C57.6868 94.0194 57.6142 93.8446 57.614 93.6622V82.9337C57.6142 82.7514 57.6868 82.5766 57.8157 82.4476C57.9447 82.3187 58.1196 82.2462 58.3019 82.246H70.3581C70.5405 82.2462 70.7153 82.3187 70.8443 82.4476C70.9733 82.5766 71.0458 82.7514 71.046 82.9337V93.6622C71.0458 93.8446 70.9733 94.0194 70.8443 94.1483C70.7153 94.2772 70.5405 94.3497 70.3581 94.3499Z" fill="#E6E6E6"/>
<path d="M112.095 41.4702H86.9781C86.5976 41.4702 86.2327 41.3191 85.9637 41.0501C85.6946 40.7811 85.5435 40.4163 85.5435 40.0359C85.5435 39.6555 85.6946 39.2907 85.9637 39.0218C86.2327 38.7528 86.5976 38.6017 86.9781 38.6017H112.095C112.475 38.6017 112.84 38.7528 113.109 39.0218C113.378 39.2907 113.529 39.6555 113.529 40.0359C113.529 40.4163 113.378 40.7811 113.109 41.0501C112.84 41.3191 112.475 41.4702 112.095 41.4702Z" fill="#CCCCCC"/>
<path d="M118.013 46.3108H86.9781C86.7897 46.3108 86.6032 46.2737 86.4291 46.2016C86.255 46.1295 86.0969 46.0239 85.9637 45.8907C85.8304 45.7575 85.7248 45.5994 85.6527 45.4254C85.5806 45.2514 85.5435 45.0649 85.5435 44.8765C85.5435 44.6882 85.5806 44.5017 85.6527 44.3276C85.7248 44.1536 85.8304 43.9955 85.9637 43.8623C86.0969 43.7292 86.255 43.6235 86.4291 43.5514C86.6032 43.4794 86.7897 43.4423 86.9781 43.4423H118.013C118.393 43.4423 118.758 43.5934 119.027 43.8623C119.296 44.1313 119.447 44.4961 119.447 44.8765C119.447 45.2569 119.296 45.6217 119.027 45.8907C118.758 46.1597 118.393 46.3108 118.013 46.3108Z" fill="#CCCCCC"/>
<path d="M81.4194 52.177H58.2641C58.0817 52.1768 57.9069 52.1043 57.7779 51.9754C57.6489 51.8465 57.5764 51.6717 57.5762 51.4893V33.4232C57.5764 33.2409 57.6489 33.0661 57.7779 32.9371C57.9069 32.8082 58.0817 32.7357 58.2641 32.7355H81.4194C81.6017 32.7357 81.7766 32.8082 81.9056 32.9371C82.0345 33.0661 82.1071 33.2409 82.1073 33.4232V51.4893C82.1071 51.6717 82.0345 51.8465 81.9056 51.9754C81.7766 52.1043 81.6017 52.1768 81.4194 52.177Z" fill="#6C63FF"/>
<path d="M15.884 163.456C13.832 163.456 11.9193 163.127 10.146 162.468C8.398 161.784 6.878 160.821 5.586 159.58C4.294 158.339 3.28067 156.882 2.546 155.21C1.83667 153.538 1.482 151.701 1.482 149.7C1.482 147.699 1.83667 145.862 2.546 144.19C3.28067 142.518 4.294 141.061 5.586 139.82C6.90333 138.579 8.436 137.629 10.184 136.97C11.932 136.286 13.8447 135.944 15.922 135.944C18.2273 135.944 20.3047 136.349 22.154 137.16C24.0287 137.945 25.5993 139.111 26.866 140.656L22.914 144.304C22.002 143.265 20.9887 142.493 19.874 141.986C18.7593 141.454 17.5433 141.188 16.226 141.188C14.9847 141.188 13.8447 141.391 12.806 141.796C11.7673 142.201 10.868 142.784 10.108 143.544C9.348 144.304 8.75267 145.203 8.322 146.242C7.91667 147.281 7.714 148.433 7.714 149.7C7.714 150.967 7.91667 152.119 8.322 153.158C8.75267 154.197 9.348 155.096 10.108 155.856C10.868 156.616 11.7673 157.199 12.806 157.604C13.8447 158.009 14.9847 158.212 16.226 158.212C17.5433 158.212 18.7593 157.959 19.874 157.452C20.9887 156.92 22.002 156.122 22.914 155.058L26.866 158.706C25.5993 160.251 24.0287 161.429 22.154 162.24C20.3047 163.051 18.2147 163.456 15.884 163.456ZM38.8918 163L27.4158 136.4H34.0658L44.0978 159.96H40.1838L50.3678 136.4H56.4858L44.9718 163H38.8918ZM88.2651 136.4H94.4211V163H88.2651V136.4ZM76.1811 163H70.0251V136.4H76.1811V163ZM88.7211 152.094H75.7251V146.888H88.7211V152.094ZM108.923 163.304C107.225 163.304 105.705 162.975 104.363 162.316C103.045 161.657 102.019 160.657 101.285 159.314C100.55 157.946 100.183 156.211 100.183 154.108V142.556H106.111V153.234C106.111 154.931 106.465 156.185 107.175 156.996C107.909 157.781 108.935 158.174 110.253 158.174C111.165 158.174 111.975 157.984 112.685 157.604C113.394 157.199 113.951 156.591 114.357 155.78C114.762 154.944 114.965 153.905 114.965 152.664V142.556H120.893V163H115.269V157.376L116.295 159.01C115.611 160.429 114.597 161.505 113.255 162.24C111.937 162.949 110.493 163.304 108.923 163.304ZM138.468 163.304C136.67 163.304 135.124 162.924 133.832 162.164C132.54 161.404 131.552 160.251 130.868 158.706C130.184 157.135 129.842 155.159 129.842 152.778C129.842 150.371 130.197 148.395 130.906 146.85C131.641 145.305 132.654 144.152 133.946 143.392C135.238 142.632 136.746 142.252 138.468 142.252C140.394 142.252 142.116 142.683 143.636 143.544C145.182 144.405 146.398 145.621 147.284 147.192C148.196 148.763 148.652 150.625 148.652 152.778C148.652 154.906 148.196 156.755 147.284 158.326C146.398 159.897 145.182 161.125 143.636 162.012C142.116 162.873 140.394 163.304 138.468 163.304ZM126.384 163V134.804H132.312V146.698L131.932 152.74L132.046 158.82V163H126.384ZM137.442 158.44C138.43 158.44 139.304 158.212 140.064 157.756C140.85 157.3 141.47 156.654 141.926 155.818C142.408 154.957 142.648 153.943 142.648 152.778C142.648 151.587 142.408 150.574 141.926 149.738C141.47 148.902 140.85 148.256 140.064 147.8C139.304 147.344 138.43 147.116 137.442 147.116C136.454 147.116 135.568 147.344 134.782 147.8C133.997 148.256 133.376 148.902 132.92 149.738C132.464 150.574 132.236 151.587 132.236 152.778C132.236 153.943 132.464 154.957 132.92 155.818C133.376 156.654 133.997 157.3 134.782 157.756C135.568 158.212 136.454 158.44 137.442 158.44Z" fill="#6C63FF"/>
</svg>
